<svg width="204" height="204" viewBox="0 0 204 204" fill="none" xmlns="http://www.w3.org/2000/svg">
<g clip-path="url(#clip0_34_6)">
<path d="M75.656 89.8C71.048 89.8 67.16 92.644 67.16 96.964C67.16 99.016 68.276 100.636 69.968 101.644C68.06 102.616 66.08 104.668 66.08 107.548C66.08 112.552 70.652 115.504 75.656 115.504C80.66 115.504 85.232 112.552 85.232 107.548C85.232 104.668 83.252 102.616 81.344 101.644C83.036 100.636 84.152 99.016 84.152 96.964C84.152 92.644 80.264 89.8 75.656 89.8ZM78.752 107.188C78.752 108.88 77.492 110.104 75.656 110.104C73.82 110.104 72.56 108.88 72.56 107.188C72.56 105.568 73.82 104.308 75.656 104.308C77.492 104.308 78.752 105.568 78.752 107.188ZM75.656 95.056C77.096 95.056 78.212 96.028 78.212 97.432C78.212 98.836 77.132 99.808 75.656 99.808C74.18 99.808 73.1 98.836 73.1 97.432C73.1 96.028 74.216 95.056 75.656 95.056ZM109.525 102.652C109.525 95.848 105.637 89.8 98.5807 89.8C91.4887 89.8 87.6007 95.848 87.6007 102.652C87.6007 109.456 91.4887 115.504 98.5807 115.504C105.637 115.504 109.525 109.456 109.525 102.652ZM102.829 102.652C102.829 106 101.533 109.276 98.5807 109.276C95.5927 109.276 94.2967 106 94.2967 102.652C94.2967 99.304 95.5927 96.028 98.5807 96.028C101.533 96.028 102.829 99.304 102.829 102.652ZM124.381 96.028C124.381 92.608 121.609 89.944 118.045 89.944C114.481 89.944 111.709 92.608 111.709 96.028C111.709 99.448 114.481 102.112 118.045 102.112C121.609 102.112 124.381 99.448 124.381 96.028ZM120.133 96.028C120.133 97.288 119.233 98.152 118.045 98.152C116.857 98.152 115.957 97.288 115.957 96.028C115.957 94.768 116.857 93.904 118.045 93.904C119.233 93.904 120.133 94.768 120.133 96.028ZM137.881 90.268H132.373L114.013 115H119.521L137.881 90.268ZM127.513 109.24C127.513 112.66 130.285 115.324 133.849 115.324C137.413 115.324 140.185 112.66 140.185 109.24C140.185 105.82 137.413 103.156 133.849 103.156C130.285 103.156 127.513 105.82 127.513 109.24ZM131.761 109.24C131.761 107.98 132.661 107.116 133.849 107.116C135.037 107.116 135.937 107.98 135.937 109.24C135.937 110.5 135.037 111.364 133.849 111.364C132.661 111.364 131.761 110.5 131.761 109.24Z" fill="white"/>
<path d="M187.639 69.9024C193.092 67.8589 199.226 70.6146 200.696 76.2487C206.238 97.4866 204.802 120.051 196.436 140.546C186.737 164.31 168.435 183.543 145.182 194.409C121.928 205.275 95.4335 206.975 70.9823 199.169C46.5311 191.364 25.9213 174.628 13.2644 152.299C0.607559 129.97 -3.16595 103.69 2.69673 78.7019C8.55941 53.7137 23.6272 31.8543 44.8943 17.4845C66.1614 3.11471 92.0643 -2.70908 117.435 1.17496C139.317 4.52476 159.415 14.883 174.791 30.5469C178.869 34.7023 178.083 41.3808 173.529 45.0093C168.975 48.6377 162.385 47.8275 158.195 43.7835C146.212 32.2158 130.877 24.5645 114.244 22.0182C94.1183 18.9371 73.5703 23.5569 56.6996 34.9561C39.829 46.3553 27.876 63.6958 23.2253 83.5183C18.5746 103.34 21.5681 124.188 31.6084 141.901C41.6488 159.614 57.9981 172.89 77.3945 179.082C96.791 185.274 117.809 183.925 136.255 175.305C154.701 166.686 169.219 151.429 176.914 132.578C183.273 116.999 184.584 99.912 180.815 83.6883C179.497 78.0167 182.187 71.946 187.639 69.9024Z" fill="url(#paint0_linear_34_6)"/>
</g>
<defs>
<linearGradient id="paint0_linear_34_6" x1="-12.4346" y1="91.2148" x2="228.124" y2="92.0983" gradientUnits="userSpaceOnUse">
<stop stop-color="#06B6D4"/>
<stop offset="1" stop-color="#0EA5E9"/>
</linearGradient>
<clipPath id="clip0_34_6">
<rect width="204" height="204" fill="white"/>
</clipPath>
</defs>
</svg>
