<svg width="204" height="204" viewBox="0 0 204 204" fill="none" xmlns="http://www.w3.org/2000/svg">
<g clip-path="url(#clip0_34_2)">
<path d="M187.639 69.9021C193.092 67.8586 199.226 70.6143 200.696 76.2484C206.238 97.4863 204.802 120.051 196.436 140.546C186.737 164.31 168.435 183.543 145.182 194.409C121.928 205.275 95.4333 206.975 70.9821 199.169C46.5309 191.364 25.9211 174.628 13.2642 152.299C0.60733 129.97 -3.16618 103.69 2.6965 78.7016C8.55918 53.7134 23.627 31.854 44.8941 17.4842C66.1612 3.1144 92.0641 -2.70939 117.435 1.17465C139.317 4.52445 159.415 14.8827 174.791 30.5466C178.869 34.702 178.083 41.3805 173.529 45.009C168.975 48.6374 162.385 47.8272 158.195 43.7832C146.212 32.2155 130.877 24.5642 114.244 22.0179C94.1181 18.9368 73.5701 23.5566 56.6994 34.9558C39.8288 46.355 27.8758 63.6955 23.2251 83.518C18.5744 103.34 21.5679 124.188 31.6082 141.901C41.6486 159.614 57.9979 172.89 77.3943 179.082C96.7908 185.274 117.809 183.925 136.255 175.305C154.701 166.686 169.219 151.429 176.914 132.578C183.273 116.999 184.584 99.9117 180.815 83.688C179.497 78.0164 182.187 71.9457 187.639 69.9021Z" fill="url(#paint0_linear_34_2)"/>
<path d="M75.7405 107.584L75.0839 106.862C74.9539 106.936 74.6376 107.012 74.036 107.012C69.6305 107.012 66.58 103.563 66.58 99.16C66.58 94.0535 70.5145 90.3 75.728 90.3C81.0536 90.3 84.876 94.0214 84.876 98.98C84.876 101.201 84.0175 103.702 82.6478 105.915C82.6475 105.916 82.6472 105.916 82.6469 105.917L77.2517 114.5H70.8607L75.7405 107.584ZM90.8012 90.804H104.661V95.42H95.3331H94.9015L94.8385 95.8469L94.3705 99.0149L94.2106 100.097L95.1335 99.5098C96.2369 98.8077 97.5108 98.436 98.9691 98.436C103.378 98.436 106.389 101.889 106.389 106.108C106.389 111.226 102.515 115.004 97.4211 115.004C94.6528 115.004 92.4298 114.213 90.8928 112.865C89.4723 111.619 88.6014 109.866 88.4414 107.724H93.8392C94.1761 108.953 95.3931 110.1 97.3131 110.1C99.4327 110.1 100.981 108.465 100.981 106.432C100.981 104.377 99.4098 102.872 97.3131 102.872C95.9529 102.872 94.8428 103.503 94.1766 104.363L89.0878 103.302L90.8012 90.804ZM75.764 95.168C73.6339 95.168 71.916 96.7781 71.916 98.908C71.916 101.031 73.6266 102.684 75.764 102.684C77.9012 102.684 79.576 101.067 79.576 98.944C79.576 96.8283 77.9086 95.168 75.764 95.168ZM115.021 90.444C118.328 90.444 120.857 92.9029 120.857 96.028C120.857 99.153 118.328 101.612 115.021 101.612C111.714 101.612 109.185 99.153 109.185 96.028C109.185 92.9029 111.714 90.444 115.021 90.444ZM115.021 98.652C116.485 98.652 117.609 97.5641 117.609 96.028C117.609 94.4918 116.485 93.404 115.021 93.404C113.557 93.404 112.433 94.4918 112.433 96.028C112.433 97.5641 113.557 98.652 115.021 98.652ZM111.983 114.5L129.601 90.768H133.863L116.245 114.5H111.983ZM130.825 114.824C127.518 114.824 124.989 112.365 124.989 109.24C124.989 106.115 127.518 103.656 130.825 103.656C134.132 103.656 136.661 106.115 136.661 109.24C136.661 112.365 134.132 114.824 130.825 114.824ZM130.825 106.616C129.361 106.616 128.237 107.704 128.237 109.24C128.237 110.776 129.361 111.864 130.825 111.864C132.289 111.864 133.413 110.776 133.413 109.24C133.413 107.704 132.289 106.616 130.825 106.616Z" fill="black" stroke="black"/>
</g>
<defs>
<linearGradient id="paint0_linear_34_2" x1="-12.4348" y1="91.2145" x2="228.124" y2="92.098" gradientUnits="userSpaceOnUse">
<stop stop-color="#06B6D4"/>
<stop offset="1" stop-color="#0EA5E9"/>
</linearGradient>
<clipPath id="clip0_34_2">
<rect width="204" height="204" fill="white"/>
</clipPath>
</defs>
</svg>
